<?xml version="1.0" standalone="no"?>
<!DOCTYPE svg PUBLIC "-//W3C//DTD SVG 20010904//EN"
 "http://www.w3.org/TR/2001/REC-SVG-20010904/DTD/svg10.dtd">
<svg version="1.0" xmlns="http://www.w3.org/2000/svg"
 width="1161.000000pt" height="1161.000000pt" viewBox="0 0 1161.000000 1161.000000"
 preserveAspectRatio="xMidYMid meet">
<metadata>
Created by potrace 1.11, written by Peter Selinger 2001-2013
</metadata>
<g transform="translate(0.000000,1161.000000) scale(0.100000,-0.100000)"
fill="#000000" stroke="none">
<path d="M5773 9217 c-28 -30 -163 -223 -163 -233 0 -3 -8 -17 -19 -32 -15
-22 -82 -128 -181 -288 -8 -13 -49 -76 -90 -141 -41 -64 -82 -128 -90 -142 -8
-14 -17 -28 -20 -31 -3 -3 -10 -14 -17 -25 -7 -11 -36 -57 -65 -103 -29 -45
-57 -90 -63 -100 -5 -10 -19 -31 -30 -47 -11 -17 -24 -38 -30 -47 -5 -9 -91
-143 -190 -298 -204 -318 -200 -311 -239 -377 -16 -26 -32 -50 -35 -53 -3 -3
-11 -14 -18 -25 -20 -35 -210 -333 -334 -525 -66 -102 -122 -193 -126 -202 -3
-10 -9 -18 -14 -18 -5 0 -9 -6 -9 -13 0 -11 300 -14 1761 -13 968 1 1765 -2
1770 -5 24 -14 -41 -162 -110 -249 -68 -87 -260 -260 -289 -260 -6 0 -12 -4
-14 -8 -11 -29 -228 -143 -383 -202 -141 -54 -193 -81 -231 -122 -29 -30 -91
-138 -79 -138 2 0 0 -12 -6 -27 -30 -77 -3 -209 62 -307 50 -75 112 -128 197
-168 64 -30 78 -31 245 -26 31 1 62 -3 68 -9 6 -6 13 -35 16 -65 2 -29 15
-107 28 -173 13 -66 26 -134 29 -151 3 -17 20 -100 37 -185 17 -85 33 -165 36
-179 14 -77 63 -328 67 -345 2 -11 9 -49 16 -85 21 -114 33 -125 110 -104 25
7 56 15 70 18 24 4 108 23 140 32 8 2 65 15 125 28 61 14 135 32 165 40 64 16
150 31 167 28 24 -5 22 18 -8 85 -17 37 -51 115 -76 173 -24 58 -53 123 -62
145 -10 22 -25 56 -34 75 -8 19 -26 60 -39 90 -30 67 -153 348 -180 410 -11
25 -26 58 -34 73 -8 16 -14 35 -14 43 0 8 -4 14 -10 14 -5 0 -10 6 -10 14 0
12 -68 174 -106 250 -20 42 -18 51 19 64 34 12 58 31 147 114 l54 51 79 -84
c44 -46 89 -100 102 -119 12 -19 33 -47 46 -61 13 -14 43 -47 66 -75 23 -27
51 -60 63 -74 12 -14 40 -47 63 -75 23 -27 49 -56 57 -65 8 -9 60 -70 115
-135 55 -66 102 -122 105 -125 3 -3 44 -50 90 -105 47 -55 89 -105 95 -111 5
-6 29 -33 52 -60 23 -27 50 -59 60 -70 10 -12 54 -65 98 -117 44 -53 83 -96
86 -96 3 -1 75 47 160 105 85 58 244 165 354 239 110 73 219 150 243 170 50
43 48 48 -34 100 -29 18 -60 40 -70 49 -11 9 -140 106 -289 216 -148 111 -277
206 -285 213 -8 7 -80 60 -160 118 -80 58 -194 143 -255 188 -60 45 -119 89
-130 97 -11 8 -99 73 -195 145 -96 72 -190 139 -207 150 -18 12 -33 24 -33 28
0 4 22 61 50 128 27 67 50 128 50 137 0 9 4 16 8 16 21 0 135 -33 202 -59 112
-43 442 -171 465 -180 61 -25 177 -70 410 -156 143 -53 276 -102 295 -110 36
-14 71 -27 80 -30 3 -1 14 -5 25 -10 29 -12 180 -70 330 -127 164 -62 370
-133 412 -141 30 -6 34 -3 57 36 77 137 478 927 513 1015 l22 52 -52 1 c-29 1
-63 2 -77 4 -14 1 -70 6 -124 10 -55 4 -109 9 -120 11 -12 2 -50 6 -86 9 -36
3 -81 8 -100 11 -19 2 -55 7 -80 9 -25 2 -72 7 -105 10 -33 3 -76 8 -95 10
-64 8 -176 20 -280 30 -25 2 -65 7 -90 10 -25 3 -76 8 -115 11 -38 3 -86 7
-105 9 -36 4 -162 13 -280 20 -36 2 -81 6 -100 9 -19 2 -69 8 -110 11 -41 4
-86 9 -100 10 -14 2 -52 6 -85 9 -33 4 -76 9 -95 11 -19 2 -66 7 -105 11 -38
3 -83 8 -100 10 -96 13 -161 17 -248 17 l-99 0 8 56 c7 50 7 88 1 235 -2 36 1
40 23 41 37 3 158 16 178 20 9 1 42 6 72 10 30 3 66 8 80 10 59 9 108 15 155
20 53 6 113 14 155 20 14 2 54 7 90 10 36 3 72 8 80 10 8 2 42 6 75 10 33 3
71 7 85 10 14 2 48 7 75 10 71 7 147 17 165 20 8 2 47 6 85 11 39 4 72 8 75 9
3 1 39 5 80 9 41 5 84 10 95 12 22 5 76 11 145 18 25 3 77 9 115 15 87 12 169
22 215 26 19 2 71 8 115 14 44 6 99 13 123 16 23 3 61 7 85 10 23 3 62 8 87
11 25 3 56 7 70 9 14 2 48 7 75 10 28 3 66 7 85 10 19 3 55 7 80 10 25 3 65 8
90 12 25 3 56 7 70 8 14 2 27 3 30 4 3 1 19 13 36 29 42 37 66 93 130 304 30
98 59 189 64 201 5 12 16 49 26 82 9 33 25 84 35 113 11 29 23 70 28 90 5 20
39 123 76 227 63 176 100 291 111 340 10 50 13 65 9 65 -2 0 -115 -41 -252
-91 -136 -49 -255 -92 -263 -94 -8 -2 -33 -11 -55 -19 -83 -31 -210 -77 -220
-80 -5 -2 -17 -6 -25 -9 -17 -7 -240 -87 -255 -91 -12 -4 -38 -13 -85 -31 -19
-8 -107 -39 -195 -70 -88 -31 -182 -65 -210 -75 -60 -22 -125 -45 -390 -140
-110 -40 -209 -75 -220 -80 -84 -32 -230 -85 -335 -121 -130 -44 -320 -113
-355 -129 -11 -5 -83 -32 -160 -60 -77 -28 -149 -54 -160 -60 -11 -5 -42 -16
-70 -25 -27 -9 -57 -18 -65 -22 -8 -3 -17 -7 -20 -8 -3 -1 -12 -4 -20 -8 -26
-10 -142 -49 -154 -52 -6 -1 -24 -7 -39 -13 -16 -7 -45 -14 -65 -18 -37 -5
-37 -4 -61 48 -50 110 -194 309 -297 412 -42 43 -173 160 -209 188 -16 12 -36
28 -43 35 -22 21 -34 15 -21 -9 7 -13 12 -25 11 -28 -3 -7 17 -69 33 -105 7
-16 25 -59 39 -95 15 -36 31 -74 36 -85 26 -58 101 -289 116 -356 2 -11 6 -29
9 -41 3 -13 8 -36 10 -53 3 -16 8 -37 10 -45 9 -34 25 -160 29 -226 2 -29 5
-56 8 -60 6 -13 2 -342 -5 -395 -14 -102 -56 -229 -76 -229 -4 0 -25 30 -46
67 -22 37 -47 78 -55 92 -21 36 -94 145 -100 151 -17 16 -219 325 -285 435
-43 72 -138 221 -211 333 -74 112 -134 207 -134 212 0 4 -4 10 -8 12 -5 2 -62
84 -128 183 -65 99 -121 182 -124 185 -14 14 -300 451 -300 459 0 5 -4 11 -8
13 -9 3 -92 125 -92 134 0 3 -5 10 -11 17 -5 7 -41 62 -79 122 -38 61 -74 115
-80 122 -5 7 -10 14 -10 17 0 3 -24 46 -53 95 l-54 90 -30 -32z m887 -1370 c0
-7 -25 -50 -43 -72 -4 -5 -35 -53 -69 -105 -33 -52 -93 -144 -132 -205 -40
-60 -85 -131 -101 -157 -17 -27 -33 -48 -37 -48 -5 0 -8 -5 -8 -10 0 -9 -40
-75 -63 -105 -4 -5 -41 -62 -82 -125 -222 -346 -319 -488 -329 -484 -11 5
-127 166 -247 344 -35 52 -67 97 -70 100 -3 3 -8 10 -10 15 -8 20 -123 190
-131 193 -4 2 -8 7 -8 12 0 5 -31 56 -70 114 -38 58 -70 110 -70 115 0 5 -3
11 -8 13 -7 3 -172 255 -172 263 0 2 -17 30 -38 62 -21 32 -41 65 -44 73 -5
13 95 15 863 15 478 0 869 -4 869 -8z"/>
<path d="M5 8818 c4 -18 31 -105 60 -193 30 -88 101 -308 160 -490 59 -181
115 -355 125 -385 66 -200 97 -312 92 -332 -1 -5 10 -9 26 -10 36 -2 49 -3
107 -12 99 -14 121 -17 155 -20 42 -5 136 -16 170 -21 14 -2 50 -6 80 -10 30
-3 66 -8 80 -10 14 -2 50 -7 80 -11 30 -3 66 -8 80 -9 14 -2 54 -7 90 -10 35
-4 73 -9 83 -11 11 -2 45 -6 76 -10 31 -3 64 -8 74 -10 10 -2 48 -6 85 -10 36
-3 75 -8 87 -10 11 -2 45 -6 75 -9 30 -3 66 -8 80 -10 39 -7 100 -15 155 -20
28 -2 61 -7 75 -9 14 -3 45 -7 70 -10 25 -3 70 -8 100 -11 30 -4 66 -8 80 -10
14 -1 86 -10 160 -19 136 -17 184 -23 230 -31 14 -2 56 -6 94 -10 38 -3 71 -7
75 -9 3 -2 39 -7 79 -10 40 -4 78 -9 85 -11 6 -2 39 -6 72 -10 65 -6 123 -13
170 -19 17 -3 57 -8 90 -11 33 -4 64 -9 68 -12 8 -5 5 -38 -8 -105 -6 -28 -9
-108 -5 -120 1 -5 4 -12 5 -18 1 -5 3 -11 4 -12 10 -12 8 -48 -2 -57 -21 -17
-114 -28 -287 -36 -98 -4 -178 -10 -260 -20 -19 -3 -66 -7 -104 -10 -38 -3
-80 -7 -95 -9 -14 -3 -57 -8 -96 -11 -38 -4 -86 -8 -105 -10 -19 -2 -64 -6
-100 -9 -36 -3 -78 -8 -95 -10 -16 -2 -66 -7 -110 -11 -44 -4 -89 -9 -100 -11
-11 -2 -63 -6 -115 -9 -133 -7 -222 -14 -245 -19 -57 -11 -150 -21 -280 -31
-111 -8 -278 -23 -355 -31 -25 -2 -70 -6 -100 -9 -30 -3 -77 -7 -105 -10 -27
-2 -79 -7 -115 -11 -73 -6 -77 -8 -64 -26 6 -7 16 -31 23 -53 13 -38 192 -402
288 -585 96 -182 141 -266 161 -300 22 -36 40 -73 67 -134 l15 -35 47 20 c27
11 57 24 68 30 23 10 155 60 170 64 6 1 17 5 25 8 8 3 107 40 220 82 113 42
233 87 267 100 34 12 64 20 67 17 3 -3 6 0 6 6 0 7 5 12 12 12 12 0 272 96
348 128 14 6 88 34 165 62 244 90 327 122 445 169 63 25 117 46 120 47 3 0 18
6 33 12 16 7 49 21 75 31 74 31 172 55 182 45 5 -5 11 -23 14 -40 9 -48 30
-103 68 -175 l35 -65 -91 -59 c-50 -33 -93 -62 -96 -65 -3 -3 -45 -34 -95 -70
-49 -35 -92 -66 -95 -70 -3 -3 -32 -25 -65 -49 -33 -25 -62 -48 -63 -53 -2 -4
-10 -8 -17 -8 -7 0 -15 -3 -17 -7 -1 -5 -41 -37 -88 -73 -47 -35 -89 -68 -95
-73 -5 -4 -35 -26 -65 -48 -30 -22 -68 -51 -85 -64 -27 -20 -129 -97 -200
-150 -41 -30 -115 -83 -160 -113 -44 -29 -157 -114 -165 -122 -3 -3 -34 -28
-70 -55 -36 -27 -67 -52 -70 -55 -3 -3 -42 -33 -87 -67 -93 -69 -92 -60 -10
-126 43 -36 698 -474 720 -483 17 -6 53 29 157 156 25 30 47 57 50 60 3 3 30
37 60 75 30 39 60 75 66 80 6 6 44 51 85 100 41 50 79 95 84 101 6 6 26 30 45
54 19 24 40 48 45 54 6 6 30 36 55 66 25 30 54 64 65 75 12 11 49 56 84 100
35 44 73 91 84 105 23 26 61 73 105 129 66 83 172 199 188 205 7 3 45 -25 86
-64 40 -39 92 -79 115 -90 24 -11 43 -22 43 -24 0 -2 -10 -25 -22 -52 -12 -27
-23 -51 -23 -54 -1 -3 -8 -21 -17 -40 -32 -71 -70 -156 -90 -200 -25 -58 -47
-106 -92 -203 -20 -44 -36 -81 -36 -83 0 -2 -16 -39 -36 -81 -20 -43 -44 -96
-53 -118 -10 -22 -61 -134 -113 -250 -132 -290 -146 -331 -115 -332 25 0 120
-14 127 -18 3 -2 18 -6 33 -9 15 -2 84 -19 154 -36 148 -37 132 -33 248 -59
50 -10 113 -22 142 -25 58 -7 61 -3 77 99 2 11 6 31 10 45 3 14 8 36 10 50 3
14 27 138 55 275 28 138 53 266 56 285 3 19 8 42 10 50 2 8 6 32 10 54 3 21 7
41 9 45 3 4 7 27 10 51 3 25 12 81 20 125 8 44 17 100 21 125 3 25 7 54 9 65
3 11 5 22 5 25 1 3 58 6 129 6 127 1 178 11 252 49 34 18 110 89 110 104 0 6
4 11 8 11 9 0 34 52 64 138 27 73 28 199 4 256 -38 87 -130 151 -371 261 -264
120 -388 197 -516 325 -269 267 -366 616 -304 1085 4 28 8 64 11 80 5 42 51
230 69 286 9 25 17 54 19 65 5 23 63 196 81 239 6 17 18 46 25 65 6 19 16 44
21 55 29 67 80 217 75 222 -6 6 -78 -45 -84 -59 -2 -4 -10 -8 -17 -8 -8 0 -18
-6 -22 -13 -4 -7 -21 -20 -36 -30 -46 -29 -169 -159 -235 -248 -94 -125 -112
-153 -153 -237 -40 -83 -46 -91 -69 -87 -23 4 -289 95 -335 115 -11 5 -63 23
-115 40 -158 53 -480 165 -515 180 -26 11 -59 23 -65 24 -3 1 -18 6 -35 13
-57 21 -70 26 -82 28 -6 2 -46 16 -90 33 -43 16 -116 43 -163 60 -47 16 -137
49 -200 72 -122 44 -131 47 -143 49 -4 0 -21 8 -38 17 -17 8 -38 17 -47 19
-10 2 -46 14 -82 28 -36 14 -171 65 -300 112 -129 47 -246 91 -260 96 -20 9
-376 138 -645 235 -38 14 -92 34 -120 44 -76 29 -336 116 -368 124 -28 7 -29
6 -22 -26z"/>
<path d="M5759 6186 c-2 -29 -11 -76 -25 -126 -8 -30 -16 -62 -18 -70 -4 -13
-21 -63 -68 -195 -15 -42 -87 -175 -109 -204 -11 -13 -19 -29 -19 -37 0 -7 -3
-14 -8 -16 -13 -5 -130 -210 -151 -265 -11 -29 -35 -108 -52 -175 -34 -137
-59 -203 -101 -266 -15 -24 -28 -47 -28 -52 0 -4 -3 -10 -7 -12 -5 -1 -29 -28
-54 -58 -82 -97 -156 -170 -173 -170 -19 0 -21 -23 -3 -39 8 -6 54 -31 103
-56 100 -50 96 -48 217 -129 114 -76 211 -167 236 -220 15 -32 18 -57 16 -116
-4 -83 -12 -162 -19 -200 -3 -14 -7 -42 -10 -64 -4 -21 -8 -41 -11 -45 -2 -4
-6 -19 -9 -33 -2 -15 -20 -63 -40 -109 -20 -45 -36 -97 -36 -114 0 -37 45
-173 90 -270 5 -11 30 -74 56 -140 26 -66 55 -140 66 -165 11 -25 26 -58 33
-75 8 -16 32 -75 55 -130 36 -89 66 -158 106 -250 10 -23 14 -25 14 -10 0 21
96 311 175 530 75 208 162 467 169 506 5 28 -2 59 -29 134 -63 176 -78 245
-78 370 -1 169 45 252 193 353 30 20 57 40 60 43 3 3 21 14 40 25 19 10 37 21
40 25 3 3 34 20 70 39 97 50 112 58 145 71 28 11 36 14 50 18 16 3 -37 74
-100 136 -142 139 -188 216 -265 440 -29 83 -53 155 -54 160 -11 39 -52 129
-108 236 -7 13 -39 60 -72 103 -65 88 -96 145 -121 226 -9 30 -20 64 -25 75
-12 28 -23 58 -25 70 -5 20 -47 160 -52 175 -9 23 -10 28 -12 54 -1 17 -8 25
-26 28 -14 3 -25 0 -26 -6z"/>
<path d="M4964 4040 c-22 -10 -59 -39 -82 -64 -43 -46 -95 -139 -85 -150 4 -3
2 -6 -4 -6 -6 0 -14 -11 -17 -24 -3 -13 -28 -70 -55 -127 -26 -57 -55 -120
-64 -139 -8 -19 -35 -78 -59 -130 -25 -52 -57 -123 -72 -157 l-28 -61 -426 -1
c-425 0 -475 -2 -542 -23 -47 -14 -60 -26 -60 -55 0 -59 97 -158 326 -330 41
-31 71 -55 203 -162 182 -148 286 -223 295 -214 3 3 -1 22 -9 42 -7 20 -25 70
-40 111 -15 41 -33 89 -40 105 -42 98 -73 191 -77 230 l-3 30 293 0 c162 0
295 -2 297 -5 2 -3 -21 -91 -51 -194 -30 -104 -53 -190 -52 -192 2 -1 19 12
39 29 31 27 93 81 169 147 17 15 106 92 163 140 158 136 193 201 152 280 -24
46 -63 60 -165 62 -80 1 -88 3 -80 18 5 9 47 74 94 144 47 70 86 129 86 132 0
3 11 20 24 37 28 38 66 103 119 207 44 87 48 144 13 219 -52 110 -156 151
-262 101z"/>
<path d="M6475 4044 c-28 -7 -52 -13 -55 -14 -11 -1 -68 -57 -79 -77 -26 -51
-5 -159 53 -268 32 -61 37 -69 104 -168 28 -43 52 -80 52 -82 0 -2 13 -23 29
-47 32 -48 114 -177 124 -195 5 -8 -15 -11 -75 -11 -92 1 -130 -10 -170 -50
-30 -30 -34 -47 -16 -89 6 -15 12 -31 12 -35 1 -4 9 -17 19 -28 9 -11 17 -24
17 -29 0 -9 109 -113 190 -181 29 -25 78 -69 108 -98 30 -29 73 -67 96 -84 22
-18 43 -35 46 -39 3 -3 15 -11 26 -17 21 -11 21 -10 14 21 -7 27 -25 92 -45
157 -9 32 -36 126 -39 135 -1 6 -6 21 -10 34 -5 14 -4 26 3 30 8 5 557 7 583
2 10 -2 -26 -122 -72 -241 -52 -131 -101 -272 -97 -277 2 -1 66 45 143 104
127 97 345 266 369 286 6 4 42 31 80 60 39 28 72 55 73 59 2 4 8 8 13 8 16 0
95 87 112 123 9 19 19 50 22 70 6 35 6 35 -52 58 -57 22 -63 22 -510 21 l-453
-1 -21 47 c-12 26 -39 83 -61 127 -21 44 -39 82 -40 85 -1 5 -35 78 -119 258
-22 48 -49 108 -60 135 -65 162 -118 215 -224 221 -23 2 -63 -3 -90 -10z"/>
</g>
</svg>
